<svg xmlns="http://www.w3.org/2000/svg" version="1.1" xmlns:xlink="http://www.w3.org/1999/xlink" xmlns:svgjs="http://svgjs.dev/svgjs" width="1440" height="560" preserveAspectRatio="none" viewBox="0 0 1440 560"><g mask="url(&quot;#SvgjsMask1107&quot;)" fill="none"><rect width="1440" height="560" x="0" y="0" fill="rgba(83, 76, 67, 1)"></rect><path d="M0,378.868C88.676,396.326,179.706,443.629,263.762,410.421C350.847,376.016,404.592,287.696,444.806,203.136C485.443,117.688,498.27,23.622,492.629,-70.829C486.606,-171.684,472.269,-275.837,411.385,-356.467C348.594,-439.622,252.659,-490.638,152.902,-520.738C52.644,-550.989,-62.436,-576.606,-154.834,-527.315C-245.146,-479.137,-269.794,-364.287,-313.7,-271.823C-346.824,-202.064,-361.088,-129.578,-379.327,-54.539C-399.752,29.492,-463.91,116.796,-427.192,195.092C-390.434,273.473,-284.038,284.018,-204.513,318.229C-137.846,346.909,-71.207,364.849,0,378.868" fill="#36312c"></path><path d="M1440 873.777C1526.901 884.356 1607.331 980.4200000000001 1687.308 944.819 1764.18 910.6 1768.839 800.846 1787.935 718.8969999999999 1804.074 649.637 1808.125 578.27 1788.66 509.87 1770.774 447.01800000000003 1715.048 406.437 1682.839 349.579 1640.089 274.115 1650.963 149.159 1568.719 121.62200000000001 1487.589 94.45800000000003 1426.698 211.05599999999998 1345.001 236.46499999999997 1265.347 261.239 1160.276 207.469 1101.708 266.869 1043.849 325.551 1088.76 426.244 1077.404 507.867 1066.1190000000001 588.986 1005.01 668.733 1035.209 744.862 1065.464 821.131 1150.399 864.075 1228.581 888.9739999999999 1297.295 910.858 1368.414 865.062 1440 873.777" fill="#70675b"></path></g><defs><mask id="SvgjsMask1107"><rect width="1440" height="560" fill="#ffffff"></rect></mask></defs></svg>